<svg width="48" height="20" viewBox="0 0 48 20" fill="none" xmlns="http://www.w3.org/2000/svg">
<mask id="path-1-inside-1_429_211" fill="white">
<path fill-rule="evenodd" clip-rule="evenodd" d="M42.4045 9.5L-4.5897e-07 9.5L-4.15258e-07 10.5L42.4093 10.5C42.3025 13.4613 41.1059 16.7307 38 20L48 10L38.4389 0.438914C38.2909 0.283045 38.1442 0.136597 38 -1.66103e-06L38.4389 0.438914C40.2332 2.32804 42.2275 5.60121 42.4045 9.5Z"/>
</mask>
<path fill-rule="evenodd" clip-rule="evenodd" d="M42.4045 9.5L-4.5897e-07 9.5L-4.15258e-07 10.5L42.4093 10.5C42.3025 13.4613 41.1059 16.7307 38 20L48 10L38.4389 0.438914C38.2909 0.283045 38.1442 0.136597 38 -1.66103e-06L38.4389 0.438914C40.2332 2.32804 42.2275 5.60121 42.4045 9.5Z" fill="#383533"/>
<path d="M-4.5897e-07 9.5L-5.47661e-07 8.5L-1 8.5L-1 9.5L-4.5897e-07 9.5ZM42.4045 9.5L42.4045 10.5L43.4509 10.5L43.4035 9.45465L42.4045 9.5ZM-4.15258e-07 10.5L-1 10.5L-1 11.5L-3.26572e-07 11.5L-4.15258e-07 10.5ZM42.4093 10.5L43.4086 10.536L43.446 9.5L42.4093 9.5L42.4093 10.5ZM38 20L37.275 19.3112L38.7071 20.7071L38 20ZM48 10L48.7071 10.7071L49.4142 10L48.7071 9.29289L48 10ZM38 -1.66103e-06L38.6877 -0.725956L37.2929 0.707106L38 -1.66103e-06ZM-3.70278e-07 10.5L42.4045 10.5L42.4045 8.5L-5.47661e-07 8.5L-3.70278e-07 10.5ZM1 10.5L1 9.5L-1 9.5L-1 10.5L1 10.5ZM42.4093 9.5L-5.03944e-07 9.5L-3.26572e-07 11.5L42.4093 11.5L42.4093 9.5ZM38.725 20.6887C41.983 17.2592 43.2923 13.7631 43.4086 10.536L41.4099 10.464C41.3128 13.1595 40.2287 16.2021 37.275 19.3112L38.725 20.6887ZM47.2929 9.29289L37.2929 19.2929L38.7071 20.7071L48.7071 10.7071L47.2929 9.29289ZM37.7318 1.14602L47.2929 10.7071L48.7071 9.29289L39.146 -0.268194L37.7318 1.14602ZM37.3123 0.725952C37.4433 0.850054 37.5775 0.984041 37.7138 1.12759L39.164 -0.249761C39.0042 -0.417951 38.8451 -0.57686 38.6877 -0.725956L37.3123 0.725952ZM39.146 -0.268194L38.7071 -0.707109L37.2929 0.707106L37.7318 1.14602L39.146 -0.268194ZM43.4035 9.45465C43.2127 5.25211 41.0744 1.76163 39.164 -0.249759L37.7138 1.12759C39.392 2.89446 41.2423 5.95031 41.4055 9.54534L43.4035 9.45465Z" fill="#383533" mask="url(#path-1-inside-1_429_211)"/>
</svg>
