<svg width="35" height="37" viewBox="0 0 35 37" fill="none" xmlns="http://www.w3.org/2000/svg">
<path d="M11.6737 18.4999C11.6737 15.2328 14.2824 12.5836 17.5011 12.5836C20.7199 12.5836 23.3299 15.2328 23.3299 18.4999C23.3299 21.767 20.7199 24.4162 17.5011 24.4162C14.2824 24.4162 11.6737 21.767 11.6737 18.4999ZM8.52279 18.4999C8.52279 23.5331 12.5424 27.6131 17.5011 27.6131C22.4599 27.6131 26.4795 23.5331 26.4795 18.4999C26.4795 13.4667 22.4599 9.38673 17.5011 9.38673C12.5424 9.38673 8.52279 13.4667 8.52279 18.4999ZM24.7367 9.02539C24.7365 9.4466 24.8594 9.85841 25.0899 10.2087C25.3203 10.5591 25.6479 10.8322 26.0312 10.9935C26.4145 11.1549 26.8364 11.1972 27.2434 11.1152C27.6505 11.0332 28.0244 10.8305 28.318 10.5328C28.6115 10.235 28.8115 9.85565 28.8926 9.44256C28.9738 9.02947 28.9324 8.60124 28.7737 8.21202C28.6151 7.8228 28.3463 7.49008 28.0013 7.25592C27.6564 7.02177 27.2507 6.8967 26.8358 6.89653H26.8349C26.2787 6.89679 25.7453 7.12114 25.3518 7.5203C24.9584 7.91945 24.7372 8.46078 24.7367 9.02539ZM10.4372 32.946C8.73247 32.8672 7.8059 32.579 7.19015 32.3355C6.37381 32.0129 5.79135 31.6287 5.17895 31.008C4.56656 30.3872 4.18748 29.7966 3.87107 28.968C3.63104 28.3433 3.34708 27.4025 3.26959 25.6722C3.18482 23.8015 3.16789 23.2395 3.16789 18.5C3.16789 13.7606 3.18622 13.2002 3.26959 11.3279C3.34722 9.59757 3.63327 8.65865 3.87107 8.03209C4.18888 7.20349 4.56739 6.61228 5.17895 5.99069C5.79051 5.3691 6.37241 4.98434 7.19015 4.66318C7.80562 4.41954 8.73247 4.13132 10.4372 4.05266C12.2802 3.96662 12.8339 3.94944 17.5011 3.94944C22.1684 3.94944 22.7226 3.96804 24.5672 4.05266C26.2719 4.13146 27.1969 4.42181 27.8142 4.66318C28.6306 4.98434 29.213 5.36995 29.8254 5.99069C30.4378 6.61143 30.8155 7.20349 31.1333 8.03209C31.3733 8.65681 31.6573 9.59757 31.7348 11.3279C31.8195 13.2002 31.8365 13.7606 31.8365 18.5C31.8365 23.2395 31.8195 23.7999 31.7348 25.6722C31.6571 27.4025 31.3718 28.343 31.1333 28.968C30.8155 29.7966 30.437 30.3878 29.8254 31.008C29.2139 31.6281 28.6306 32.0129 27.8142 32.3355C27.1987 32.5791 26.2719 32.8673 24.5672 32.946C22.7241 33.032 22.1705 33.0492 17.5011 33.0492C12.8318 33.0492 12.2797 33.032 10.4372 32.946ZM10.2924 0.859799C8.43102 0.945839 7.15909 1.24542 6.04831 1.68414C4.89793 2.1372 3.92409 2.74502 2.95094 3.73121C1.97779 4.71741 1.3805 5.70744 0.934147 6.87509C0.501917 8.00327 0.20677 9.29359 0.122003 11.1829C0.0358364 13.0752 0.0161133 13.6802 0.0161133 18.4999C0.0161133 23.3196 0.0358364 23.9245 0.122003 25.8169C0.20677 27.7063 0.501917 28.9965 0.934147 30.1247C1.3805 31.2916 1.97793 32.2828 2.95094 33.2686C3.92395 34.2543 4.89793 34.8613 6.04831 35.3157C7.16119 35.7544 8.43102 36.0539 10.2924 36.14C12.1577 36.226 12.7528 36.2475 17.5011 36.2475C22.2495 36.2475 22.8455 36.2275 24.7099 36.14C26.5714 36.0539 27.8425 35.7544 28.954 35.3157C30.1036 34.8613 31.0782 34.2548 32.0513 33.2686C33.0245 32.2824 33.6205 31.2916 34.0681 30.1247C34.5004 28.9965 34.7969 27.7062 34.8803 25.8169C34.965 23.9231 34.9848 23.3196 34.9848 18.4999C34.9848 13.6802 34.965 13.0752 34.8803 11.1829C34.7955 9.29345 34.5004 8.00256 34.0681 6.87509C33.6205 5.70815 33.0229 4.71897 32.0513 3.73121C31.0797 2.74346 30.1036 2.1372 28.9554 1.68414C27.8425 1.24542 26.5712 0.944419 24.7113 0.859799C22.8469 0.773758 22.2509 0.752319 17.5025 0.752319C12.7542 0.752319 12.1577 0.772339 10.2924 0.859799Z" fill="#383533"/>
</svg>
