<svg width="27" height="33" viewBox="0 0 27 33" fill="none" xmlns="http://www.w3.org/2000/svg">
<path d="M9.16667 20.7561L10.6915 20.4099C10.7233 20.4027 10.7772 20.3907 10.8409 20.3702C11.2621 20.2594 11.623 19.9924 11.8476 19.6256C12.0721 19.2588 12.1429 18.8207 12.0449 18.4036L12.0387 18.3772C11.9883 18.1774 11.9003 17.9886 11.7791 17.8206C11.6083 17.6079 11.397 17.4299 11.1569 17.2965C10.8742 17.1384 10.5784 17.0041 10.2726 16.895L8.60082 16.2952C7.66266 15.9526 6.72449 15.6196 5.77652 15.2938C5.16292 15.0799 4.6424 14.8912 4.19046 14.7529C4.10444 14.7296 4.01908 14.7039 3.93448 14.676C3.38824 14.5125 3.00366 14.444 2.6791 14.4416C2.46218 14.4336 2.2461 14.4722 2.0459 14.5546C1.83674 14.6434 1.64896 14.7745 1.49476 14.9392C1.41826 15.0245 1.34631 15.1136 1.2792 15.2061C1.14871 15.4029 1.04108 15.6133 0.958313 15.8336C0.647711 16.734 0.492883 17.6791 0.500251 18.6296C0.506375 19.4879 0.529645 20.5902 1.01098 21.3379C1.12733 21.5303 1.28288 21.6961 1.46781 21.8248C1.81075 22.0568 2.15613 22.088 2.51743 22.1133C3.05633 22.1505 3.57685 22.0219 4.09738 21.9029L9.16299 20.7549L9.16667 20.7561ZM26.1786 12.8115C25.7624 11.954 25.2027 11.1711 24.5227 10.4951C24.4349 10.4092 24.3407 10.3296 24.241 10.2571C24.1489 10.1893 24.0533 10.1263 23.9544 10.0684C23.8527 10.0137 23.748 9.96432 23.6409 9.92054C23.4294 9.83894 23.2028 9.80207 22.9759 9.81235C22.7591 9.82437 22.5472 9.88447 22.3549 9.98425C22.0646 10.1261 21.7499 10.3545 21.331 10.7355C21.2734 10.792 21.2012 10.8558 21.135 10.9159C20.7909 11.2344 20.4063 11.6275 19.9495 12.0843C19.2428 12.7851 18.5483 13.4895 17.8563 14.2L16.6193 15.4597C16.3935 15.6895 16.1878 15.9376 16.0045 16.2014C15.8476 16.4247 15.7365 16.6758 15.6775 16.9407C15.6444 17.1442 15.6494 17.352 15.6922 17.5538L15.6983 17.5802C15.7961 17.9968 16.0547 18.3599 16.4198 18.5931C16.7848 18.8263 17.2278 18.9113 17.6555 18.8304C17.707 18.8233 17.7581 18.8136 17.8086 18.8015L24.4003 17.3061C24.9208 17.1883 25.4474 17.0801 25.9141 16.8133C26.2276 16.6366 26.5252 16.4599 26.7297 16.1041C26.8387 15.9081 26.9046 15.6919 26.9233 15.4694C27.0249 14.587 26.5558 13.5857 26.1786 12.8115ZM14.378 15.5319C14.8557 14.9428 14.8557 14.0653 14.8973 13.3465C15.0418 10.9483 15.1925 8.55016 15.3137 6.1508C15.3591 5.24203 15.4583 4.34527 15.4032 3.42929C15.3578 2.67438 15.3529 1.80647 14.8667 1.1862C14.0094 0.0923011 12.1796 0.182458 10.9315 0.353154C10.5465 0.405349 10.1644 0.475955 9.7864 0.56472C9.40672 0.653674 9.02949 0.751043 8.66207 0.867645C7.46425 1.25231 5.7802 1.95914 5.49605 3.31389C5.33438 4.07961 5.71651 4.86217 6.01046 5.56178C6.36931 6.40805 6.85799 7.17137 7.3038 7.96835C8.48325 10.0732 9.68351 12.166 10.8801 14.2601C11.239 14.8851 11.6272 15.6761 12.3192 16.0007C12.3657 16.0199 12.4123 16.0367 12.46 16.0524C12.7699 16.1678 13.1092 16.1894 13.4313 16.1161L13.4889 16.1041C13.7877 16.0235 14.0571 15.8636 14.269 15.6437C14.3082 15.6076 14.3437 15.5715 14.3793 15.5319H14.378ZM13.8061 21.9522C13.6196 21.6948 13.355 21.5019 13.0501 21.4011C12.7452 21.3002 12.4156 21.2966 12.1085 21.3908C12.0363 21.4142 11.9659 21.4427 11.8979 21.4762C11.7926 21.5289 11.6922 21.5904 11.5978 21.6601C11.3282 21.8686 11.0873 22.1106 10.8813 22.3801C10.8287 22.4462 10.7797 22.534 10.716 22.5917L9.65534 24.0222C9.05521 24.8252 8.4612 25.6294 7.87454 26.4456C7.48997 26.9733 7.15928 27.4193 6.89596 27.8123C6.84697 27.8869 6.79553 27.9686 6.74899 28.0359C6.43422 28.512 6.25663 28.8606 6.16477 29.1707C6.09616 29.3767 6.07441 29.595 6.10108 29.8102C6.13048 30.0338 6.20764 30.249 6.32644 30.4425C6.39013 30.5387 6.45872 30.6324 6.5322 30.7226C6.69093 30.9019 6.86964 31.0632 7.06498 31.2034C7.79738 31.7035 8.59838 32.0629 9.44101 32.3406C10.1428 32.569 10.8715 32.706 11.6088 32.7469C11.735 32.7529 11.8611 32.7505 11.9861 32.7397C12.1019 32.7291 12.2172 32.713 12.3314 32.6916C12.4458 32.6655 12.5586 32.6334 12.6695 32.5954C12.885 32.5162 13.0811 32.3933 13.2451 32.2348C13.4007 32.0821 13.5207 31.8982 13.5954 31.6951C13.7179 31.3946 13.7987 31.0147 13.8526 30.4497C13.8563 30.3692 13.8685 30.273 13.8771 30.1853C13.9187 29.7164 13.9383 29.1635 13.9677 28.5168C14.0204 27.5202 14.0608 26.5285 14.0927 25.5344L14.1612 23.7649C14.1772 23.3586 14.1637 22.9066 14.0486 22.5015C13.9979 22.307 13.9161 22.1215 13.8061 21.9522ZM25.7757 24.7206C25.5552 24.4814 25.2417 24.2446 24.7469 23.9513C24.6758 23.9116 24.5913 23.8599 24.5142 23.8142C24.1026 23.5702 23.6066 23.3154 23.0273 23.0064C22.1369 22.5256 21.2465 22.0592 20.3463 21.5952L18.7578 20.7681C18.6757 20.7441 18.5924 20.6864 18.514 20.6491C18.2086 20.496 17.8842 20.3825 17.5489 20.3113C17.4334 20.2895 17.3163 20.2774 17.1987 20.2753C17.1225 20.2749 17.0464 20.2793 16.9708 20.2885C16.6528 20.3367 16.3585 20.4822 16.1297 20.7044C15.901 20.9265 15.7496 21.2139 15.6971 21.5254C15.6738 21.7238 15.6812 21.9245 15.7204 22.1193C15.7975 22.5352 15.9861 22.9451 16.1821 23.3045L17.0296 24.866C17.5024 25.746 17.98 26.6211 18.47 27.4938C18.7859 28.0624 19.0493 28.5492 19.2954 28.9531C19.342 29.0289 19.3947 29.1106 19.4351 29.1815C19.7351 29.666 19.9752 29.9713 20.2189 30.1913C20.3813 30.3445 20.5761 30.4607 20.7896 30.5313C21.003 30.602 21.2297 30.6254 21.4535 30.6C21.57 30.586 21.6857 30.566 21.8001 30.5399C22.0344 30.4783 22.2608 30.3908 22.4749 30.279C23.1196 29.9244 23.7138 29.4879 24.2423 28.9808C24.8767 28.3677 25.4376 27.6994 25.8736 26.9348C25.9349 26.8266 25.9863 26.7148 26.0304 26.5982C26.0715 26.4915 26.107 26.3827 26.137 26.2725C26.1627 26.1595 26.1823 26.0465 26.1958 25.9323C26.2177 25.7078 26.1914 25.4814 26.1186 25.2675C26.0467 25.0623 25.9296 24.8752 25.7757 24.7194V24.7206Z" fill="#383533"/>
</svg>
