<svg width="38" height="27" viewBox="0 0 38 27" fill="none" xmlns="http://www.w3.org/2000/svg">
<path d="M36.5787 4.55967C36.1543 2.96421 34.8989 1.70558 33.3016 1.27421C30.4135 0.500122 18.8258 0.500122 18.8258 0.500122C18.8258 0.500122 7.24397 0.500122 4.34999 1.27421C2.7586 1.69967 1.50317 2.9583 1.0729 4.55967C0.300781 7.45512 0.300781 13.5001 0.300781 13.5001C0.300781 13.5001 0.300781 19.5451 1.0729 22.4406C1.49727 24.036 2.75271 25.2947 4.34999 25.726C7.24397 26.5001 18.8258 26.5001 18.8258 26.5001C18.8258 26.5001 30.4135 26.5001 33.3016 25.726C34.893 25.3006 36.1484 24.0419 36.5787 22.4406C37.3508 19.5451 37.3508 13.5001 37.3508 13.5001C37.3508 13.5001 37.3508 7.45512 36.5787 4.55967Z" fill="#383533"/>
<path d="M15.1243 19.0724L24.7493 13.5001L15.1243 7.92785V19.0724Z" fill="white"/>
</svg>
