<svg width="31" height="25" viewBox="0 0 31 25" fill="none" xmlns="http://www.w3.org/2000/svg">
<path d="M29 21.2C28.52 22.4 27.6 23.2 26.24 23.6C24.96 24 23.6 23.92 22.16 23.36C20.8 22.8 19.76 21.68 19.04 20C18 17.52 17.6 15.16 17.84 12.92C18.08 10.68 18.76 8.68 19.88 6.92C21.08 5.08 22.56 3.64 24.32 2.6C26.08 1.55999 28 0.999994 30.08 0.919995L30.32 2C27.76 2.79999 26.08 3.99999 25.28 5.59999C24.48 7.12 24.24 8.64 24.56 10.16C24.88 11.68 25.4 12.88 26.12 13.76C26.68 14.4 27.24 15.08 27.8 15.8C28.44 16.52 28.92 17.32 29.24 18.2C29.56 19.08 29.48 20.08 29 21.2ZM12.2 21.2C11.72 22.4 10.8 23.2 9.44 23.6C8.16 24 6.8 23.92 5.36 23.36C4 22.8 2.96 21.68 2.24 20C1.2 17.52 0.8 15.16 1.04 12.92C1.28 10.68 1.96 8.68 3.08 6.92C4.28 5.08 5.76 3.64 7.52 2.6C9.28 1.55999 11.2 0.999994 13.28 0.919995L13.52 2C10.96 2.79999 9.28 3.99999 8.48 5.59999C7.68 7.12 7.44 8.64 7.76 10.16C8.08 11.68 8.6 12.88 9.32 13.76C9.88 14.4 10.44 15.08 11 15.8C11.64 16.52 12.12 17.32 12.44 18.2C12.76 19.08 12.68 20.08 12.2 21.2Z" fill="#383533"/>
</svg>
